<?xml version="1.0" standalone="no"?><!DOCTYPE svg PUBLIC "-//W3C//DTD SVG 1.1//EN" "http://www.w3.org/Graphics/SVG/1.1/DTD/svg11.dtd"><svg t="1689438796707" class="icon" viewBox="0 0 1024 1024" version="1.1" xmlns="http://www.w3.org/2000/svg" p-id="1466" xmlns:xlink="http://www.w3.org/1999/xlink" width="200" height="200"><path d="M943.157895 927.043368c0-0.823392 1.347368-2.32945 2.994152-3.347462 1.646784-1.018012 2.994152-1.176702 2.994152-0.35331s-1.347368 2.32945-2.994152 3.347462c-1.646784 1.018012-2.994152 1.176702-2.994152 0.35331zM64.089825 912.467836c-5.70386-6.736842-5.70386-6.736842 1.032982-1.032982 6.329637 5.359532 8.099181 7.769825 5.70386 7.769824-0.568889 0-3.598971-3.030082-6.736842-6.736842zM970.105263 900.096c0-0.823392 1.347368-2.32945 2.994152-3.347462 1.646784-1.018012 2.994152-1.176702 2.994152-0.35331s-1.347368 2.32945-2.994152 3.347462c-1.646784 1.018012-2.994152 1.176702-2.994152 0.35331zM369.02924 830.128655c80.282199-0.443135 211.65062-0.443135 291.929824 0 80.282199 0.443135 14.596491 0.808421-145.964912 0.808421s-226.247111-0.365287-145.964912-0.808421zM1003.514012 799.438596c0-4.116959 0.679673-5.802667 1.509052-3.74269 0.832374 2.059977 0.832374 5.428398 0 7.485381-0.82938 2.059977-1.509053 0.374269-1.509052-3.742691z m0.946152-221.567251c0-116.098246 0.371275-163.59448 0.826386-105.54386 0.452117 58.047626 0.452117 153.037099 0 211.08772-0.455111 58.047626-0.826386 10.554386-0.826386-105.54386z m-853.351299 16.467836c0-95.51345 0.380257-134.152982 0.844351-85.869286 0.461099 48.28669 0.461099 126.434058 0 173.660818-0.464094 47.229754-0.844351 7.721918-0.844351-87.791532z m182.239065 68.365474a2.832468 2.832468 0 0 1 3.994199 0c1.09586 1.098854 0.197614 1.997099-1.9971 1.997099-2.194713 0-3.092959-0.898246-1.997099-1.997099zM276.959064 643.74269c-1.018012-1.646784-1.176702-2.994152-0.35331-2.994152s2.32945 1.347368 3.347462 2.994152c1.018012 1.646784 1.176702 2.994152 0.35331 2.994152s-2.32945-1.347368-3.347462-2.994152z m601.022129-227.555555c0-5.763743 0.616795-8.12014 1.368327-5.239767 0.754526 2.883368 0.754526 7.599158 0 10.479533-0.751532 2.883368-1.368327 0.523977-1.368327-5.239766zM18.20145 396.973661c-0.128749-3.155836 0.577871-4.922386 1.57193-3.928328 0.994058 0.994058 1.101848 3.578012 0.239532 5.73979-0.958129 2.386339-1.667743 1.676725-1.811462-1.811462zM167.672515 363.789474c2.050994-2.470175 4.401404-4.491228 5.224795-4.491228 0.823392 0-0.179649 2.021053-2.230643 4.491228s-4.401404 4.491228-5.224796 4.491228c-0.823392 0 0.179649-2.021053 2.230644-4.491228z m-149.471065-11.728094c-0.128749-3.155836 0.577871-4.922386 1.57193-3.928327 0.994058 0.994058 1.101848 3.578012 0.239532 5.739789-0.958129 2.386339-1.667743 1.676725-1.811462-1.811462zM968.608187 281.450292c-1.018012-1.646784-1.176702-2.994152-0.35331-2.994152s2.32945 1.347368 3.347462 2.994152c1.018012 1.646784 1.176702 2.994152 0.35331 2.994152s-2.32945-1.347368-3.347462-2.994152z m-22.839392-23.204678c-3.721731-4.748725-3.616936-4.85352 1.13179-1.131789 4.988257 3.913357 6.572164 6.371556 4.107976 6.371555-0.619789 0-2.979181-2.356398-5.239766-5.239766z m-85.450105-35.68131a2.832468 2.832468 0 0 1 3.994199 0c1.09586 1.098854 0.197614 1.997099-1.9971 1.9971-2.194713 0-3.092959-0.898246-1.997099-1.9971zM172.163743 219.555181c35.890901-2.167766 79.357006-2.296515 79.351017-0.233544-0.002994 1.233591-21.228538 1.997099-47.163883 1.691696-25.938339-0.305404-40.421053-0.958129-32.187134-1.458152z m390.736842 0.868304c0-0.823392 1.347368-2.32945 2.994152-3.347462 1.646784-1.018012 2.994152-1.176702 2.994152-0.35331s-1.347368 2.32945-2.994152 3.347462c-1.646784 1.018012-2.994152 1.176702-2.994152 0.35331z m-120.149334-13.078456c-3.721731-4.748725-3.616936-4.85352 1.13179-1.131789 4.988257 3.913357 6.572164 6.371556 4.107977 6.371555-0.619789 0-2.979181-2.356398-5.239767-5.239766zM229.052632 200.608187c-1.018012-1.646784-1.176702-2.994152-0.35331-2.994152s2.32945 1.347368 3.347462 2.994152c1.018012 1.646784 1.176702 2.994152 0.35331 2.994152s-2.32945-1.347368-3.347462-2.994152z m558.409356 1.850386c0-0.823392 1.347368-2.32945 2.994152-3.347462 1.646784-1.018012 2.994152-1.176702 2.994152-0.35331s-1.347368 2.32945-2.994152 3.347462c-1.646784 1.018012-2.994152 1.176702-2.994152 0.35331z m-200.608187-2.994152c0-0.823392 1.347368-2.32945 2.994152-3.347462 1.646784-1.018012 2.994152-1.176702 2.994152-0.35331s-1.347368 2.32945-2.994152 3.347462c-1.646784 1.018012-2.994152 1.176702-2.994152 0.35331zM417.684211 185.637427c-1.018012-1.646784-1.176702-2.994152-0.35331-2.994152s2.32945 1.347368 3.347462 2.994152c1.018012 1.646784 1.176702 2.994152 0.35331 2.994152s-2.32945-1.347368-3.347462-2.994152z m193.122807-7.13207c0-0.823392 1.347368-2.32945 2.994152-3.347462 1.646784-1.018012 2.994152-1.176702 2.994152-0.35331s-1.347368 2.32945-2.994152 3.347462c-1.646784 1.018012-2.994152 1.176702-2.994152 0.35331zM393.730994 164.678363c-1.018012-1.646784-1.176702-2.994152-0.35331-2.994152s2.32945 1.347368 3.347462 2.994152c1.018012 1.646784 1.176702 2.994152 0.35331 2.994152s-2.32945-1.347368-3.347462-2.994152z m244.023392-10.126223c0-0.823392 1.347368-2.32945 2.994152-3.347462 1.646784-1.018012 2.994152-1.176702 2.994152-0.35331s-1.347368 2.32945-2.994152 3.347462c-1.646784 1.018012-2.994152 1.176702-2.994152 0.35331zM369.777778 143.719298c-1.018012-1.646784-1.176702-2.994152-0.35331-2.994152s2.32945 1.347368 3.347462 2.994152c1.018012 1.646784 1.176702 2.994152 0.35331 2.994152s-2.32945-1.347368-3.347462-2.994152zM188.631579 140.725146c0-2.194713 0.898246-3.092959 1.997099-1.997099a2.832468 2.832468 0 0 1 0 3.994199C189.529825 143.818105 188.631579 142.91986 188.631579 140.725146z m473.076023-7.13207c0-0.823392 1.347368-2.32945 2.994152-3.347462 1.646784-1.018012 2.994152-1.176702 2.994152-0.35331s-1.347368 2.32945-2.994152 3.347462c-1.646784 1.018012-2.994152 1.176702-2.994152 0.35331zM345.824561 122.760234c-1.018012-1.646784-1.176702-2.994152-0.35331-2.994152s2.32945 1.347368 3.347462 2.994152c1.018012 1.646784 1.176702 2.994152 0.35331 2.994152s-2.32945-1.347368-3.347462-2.994152zM685.660819 112.634012c0-0.823392 1.347368-2.32945 2.994152-3.347462 1.646784-1.018012 2.994152-1.176702 2.994152-0.35331s-1.347368 2.32945-2.994152 3.347462c-1.646784 1.018012-2.994152 1.176702-2.994152 0.35331zM321.871345 101.80117c-1.018012-1.646784-1.176702-2.994152-0.35331-2.994152s2.32945 1.347368 3.347462 2.994152c1.018012 1.646784 1.176702 2.994152 0.35331 2.994152s-2.32945-1.347368-3.347462-2.994152zM712.608187 88.327485c2.050994-2.470175 4.401404-4.491228 5.224795-4.491228 0.823392 0-0.179649 2.021053-2.230643 4.491228s-4.401404 4.491228-5.224795 4.491228c-0.823392 0 0.179649-2.021053 2.230643-4.491228z" fill="#ffffff" p-id="1467"></path><path d="M151.204678 956.035743c-57.367953-7.626105-110.292585-56.068491-125.898105-115.226948-3.155836-11.958643-4.119953-66.458199-4.57207-258.065965L20.16262 339.836257l8.323743-20.959064c15.674386-39.450947 49.226854-73.530386 87.315462-88.677801 15.731275-6.257778 23.228632-7.042246 76.572444-8.009357 32.52248-0.589848 59.020725-1.982129 58.882994-3.092959-0.137731-1.11083-10.937637-11.207111-23.995134-22.432187-28.710924-24.680795-36.331041-37.965848-36.573568-63.760468-0.347322-36.831064 23.025029-63.937123 57.260164-66.410292 29.779836-2.155789 39.067696 3.811556 130.104889 83.593731L459.602339 221.552281l51.735953 0.005988 51.732959 0.008982 80.009731-70.410479c44.002058-38.726363 85.483041-73.087251 92.18096-76.350877 36.049591-17.590643 83.485942 5.479298 94.369684 45.900351 7.054222 26.186854-3.509146 48.172912-37.274199 77.590456L767.371228 220.070175l54.209123 1.790503c29.81876 0.982082 60.275275 3.464234 67.685801 5.512234 21.767485 6.018246 46.11593 20.485988 65.311439 38.807205 22.036959 21.036912 34.899836 40.867181 42.5469 65.60786 5.581099 18.066713 5.841591 29.441497 5.892491 257.497076 0.056889 259.012117 0.449123 252.248327-16.749286 287.399672-10.431626 21.327345-39.483883 50.289778-62.847252 62.655626-36.798129 19.476959-20.300351 18.743392-409.920374 18.294269-194.320468-0.221567-357.352047-0.940164-362.292397-1.598877z m681.388164-130.024047c18.024795-8.197988 31.956585-22.698667 38.429942-39.995883 5.760749-15.39593 6.024234-23.743626 6.422456-203.419696l0.413193-187.362059-7.769825-13.258105c-9.695064-16.54269-18.743392-23.743626-39.681497-31.579321-16.249263-6.078129-20.045848-6.141006-326.862596-5.359533L193.122807 345.824561l-13.997661 9.719018c-9.671111 6.715883-16.407953 14.656374-21.812397 25.698807l-7.817731 15.979789 0.853333 189.880141c0.850339 188.871111 0.892257 189.946012 7.416514 202.141193 11.596351 21.665684 29.869661 34.678269 56.317006 40.091696 6.587135 1.347368 146.039766 2.245614 309.894737 1.997099 267.988585-0.410199 298.993029-0.943158 308.616234-5.320608z m-161.806971-162.235135c-14.979743-4.772678-37.720327-27.944421-41.699555-42.490011-5.266713-19.252398-4.281637-110.145871 1.34138-123.604585 9.356725-22.399251 31.738012-38.495813 57.823064-41.582784 27.851602-3.299556 60.475883 18.752374 68.787649 46.493193 2.056982 6.862596 3.449263 32.247018 3.41034 62.152608-0.056889 43.466105-0.877287 52.337778-5.847579 63.290386-14.222222 31.336795-49.897544 46.547088-83.815299 35.741193zM314.385965 661.887251c-25.549099-5.134971-44.939228-23.486129-52.57731-49.762807-3.77862-12.99462-4.610994-26.923415-3.823532-63.859274 0.994058-46.568047 1.137778-47.445333 10.069333-61.886129 12.880842-20.815345 32.564398-32.456608 53.936655-31.893708 32.130246 0.847345 57.912889 18.249357 68.637942 46.328515 4.272655 11.19214 4.946339 21.737544 4.081029 63.940117-0.928187 45.391345-1.712655 51.819789-7.71593 63.092772-13.461708 25.285614-44.27752 39.732398-72.608187 34.040514z" fill="#ffffff" p-id="1468"></path></svg>